<svg xmlns="http://www.w3.org/2000/svg" viewBox="0 0 512 512">
  <defs>
    <linearGradient id="bg" x1="0%" x2="100%" y1="0%" y2="100%">
      <stop offset="0%" stop-color="#12344d" />
      <stop offset="100%" stop-color="#0f6b64" />
    </linearGradient>
  </defs>
  <rect width="512" height="512" rx="112" fill="url(#bg)" />
  <circle cx="256" cy="256" r="156" fill="#dff3ef" opacity="0.14" />
  <path d="M172 324c15 20 42 34 84 34 53 0 88-23 88-58 0-29-19-45-66-56l-43-10c-23-5-33-12-33-25 0-18 19-29 48-29 31 0 53 11 73 31l39-47c-27-28-66-43-111-43-62 0-106 31-106 82 0 36 23 58 71 69l43 10c22 5 30 12 30 24 0 18-18 29-50 29-35 0-64-12-88-39z" fill="#dff3ef" />
  <text x="256" y="432" text-anchor="middle" font-family="Segoe UI, Arial, sans-serif" font-size="44" font-weight="700" fill="#dff3ef">SMIS</text>
</svg>
