<svg xmlns="http://www.w3.org/2000/svg" viewBox="0 0 512 512" role="img" aria-labelledby="title desc">
  <title id="title">SMIS Field Reporter icon</title>
  <desc id="desc">Two-tone blue shield with a gold accent for SMIS Field Reporter.</desc>
  <defs>
    <linearGradient id="leftBlue" x1="0%" x2="100%" y1="0%" y2="100%">
      <stop offset="0%" stop-color="#45a4da" />
      <stop offset="100%" stop-color="#2a78b2" />
    </linearGradient>
    <linearGradient id="rightBlue" x1="0%" x2="100%" y1="0%" y2="100%">
      <stop offset="0%" stop-color="#1b5a93" />
      <stop offset="100%" stop-color="#12385e" />
    </linearGradient>
    <linearGradient id="gold" x1="0%" x2="100%" y1="0%" y2="100%">
      <stop offset="0%" stop-color="#f2c561" />
      <stop offset="100%" stop-color="#c8912f" />
    </linearGradient>
  </defs>

  <path
    d="M256 42 414 94v142c0 116-67 194-158 234C165 430 98 352 98 236V94Z"
    fill="#0d2d4a"
  />
  <path
    d="M256 60 396 106v128c0 101-56 171-140 210V60Z"
    fill="url(#rightBlue)"
  />
  <path
    d="M256 60V444c-84-39-140-109-140-210V106Z"
    fill="url(#leftBlue)"
  />
  <path
    d="M255 108 255 390"
    stroke="rgba(255,255,255,0.28)"
    stroke-linecap="round"
    stroke-width="8"
  />
  <path
    d="M186 348c24 31 50 53 70 67 20-14 46-36 70-67-25 10-48 15-70 15s-45-5-70-15Z"
    fill="url(#gold)"
  />
  <path
    d="M168 114 256 86 344 114"
    fill="none"
    opacity="0.45"
    stroke="rgba(255,255,255,0.34)"
    stroke-linecap="round"
    stroke-linejoin="round"
    stroke-width="10"
  />
</svg>
